<svg width="171" height="154" viewBox="0 0 171 154" fill="none" xmlns="http://www.w3.org/2000/svg">
<rect x="17" y="13" width="139" height="134" fill="#FBA70B"/>
<g opacity="0.99">
<g clip-path="url(#clip0_89_866)">
<path d="M0 77V154H85.1053H170.211V77V-1.52588e-05H85.1053H0V77ZM91.5165 19.866C90.2683 20.0713 90.2116 20.328 90.2116 24.8453V29.6193L92.5378 29.9786C97.8711 30.7486 102.977 34.342 105.36 39.0133C109.956 48.048 103.375 59.29 92.5378 60.8813L90.2116 61.2406V81.8253C90.2683 93.17 90.0981 102.872 89.8712 103.334C89.474 104.258 86.013 104.566 84.6514 103.796C84.1407 103.437 83.9705 98.7653 84.084 82.1333L84.2542 60.9326L87.3747 60.3167C91.4031 59.598 93.7293 58.4687 96.4526 55.902C100.538 52.1033 102.07 45.5327 100.141 40.502C98.0413 35.1633 93.9562 31.878 87.6584 30.4407L83.9705 29.6193V24.5887V19.5067L88.396 19.558C90.7789 19.6093 92.1974 19.7633 91.5165 19.866ZM95.4881 20.3793C95.091 20.482 94.4101 20.482 94.0697 20.3793C93.6725 20.2253 93.9562 20.1227 94.7505 20.1227C95.5448 20.1227 95.8285 20.2253 95.4881 20.3793ZM97.9845 20.8413C97.8143 20.9953 97.3037 21.0467 96.9065 20.8927C96.4526 20.7386 96.6228 20.5847 97.2469 20.5847C97.8711 20.5333 98.2115 20.6873 97.9845 20.8413ZM111.147 28.5927C112.452 29.876 113.474 31.1593 113.474 31.4673C113.474 31.724 112.736 31.0566 111.828 29.9273C110.977 28.8493 109.105 27.0527 107.743 25.9747C106.155 24.6913 105.871 24.3833 107.062 25.102C108.027 25.718 109.899 27.258 111.147 28.5927ZM115.119 34.0853C114.949 34.2393 114.495 33.8286 114.098 33.2126C113.36 32.1346 113.417 32.1347 114.381 32.956C114.949 33.4693 115.289 33.9827 115.119 34.0853ZM116.821 37.9866C116.821 38.5 116.651 38.3973 116.311 37.73C115.63 36.344 115.63 35.5226 116.311 36.4466C116.594 36.8573 116.821 37.576 116.821 37.9866ZM117.275 40.1426C117.105 40.5533 116.935 40.3993 116.935 39.8346C116.878 39.27 117.048 38.962 117.218 39.1673C117.389 39.3213 117.445 39.7833 117.275 40.1426ZM117.842 47.3293C117.729 48.5613 117.615 47.586 117.615 45.1733C117.615 42.7607 117.729 41.7853 117.842 42.966C117.956 44.198 117.956 46.1487 117.842 47.3293ZM113.53 59.906C112.85 60.9326 112.736 60.6246 113.247 59.29C113.474 58.828 113.757 58.5713 113.871 58.7253C114.041 58.828 113.871 59.3926 113.53 59.906ZM110.807 64.9367C109.672 67.0413 108.594 68.684 108.481 68.5813C108.254 68.3246 112.225 61.0866 112.623 61.0866C112.793 61.0866 111.942 62.832 110.807 64.9367ZM107.97 70.07C107.8 70.532 107.516 70.7887 107.403 70.6347C107.233 70.4807 107.289 70.1726 107.516 69.8646C108.027 69.0433 108.367 69.1973 107.97 70.07ZM98.2115 88.088C96.3392 91.476 94.8073 94.0427 94.8073 93.8373C94.7505 93.2727 101.219 81.62 101.445 81.8253C101.559 81.928 100.084 84.7513 98.2115 88.088ZM93.5023 96.7633C93.5023 97.6914 89.8712 103.334 89.8712 103.334C89.8712 103.334 93.5023 95.48 93.8995 95.48C94.0697 95.48 93.8427 96.0447 93.5023 96.7633ZM51.6305 109.032C51.6305 109.648 51.4036 110.88 51.1199 111.701C50.8362 112.523 50.4391 113.806 50.2688 114.627C49.9284 116.013 49.9284 116.013 52.1979 115.705C53.6731 115.5 55.0347 115.603 55.8291 116.013C59.8006 117.913 58.7226 127.82 54.0702 131.721C48.8504 136.085 41.4179 134.853 41.4179 129.617C41.4179 128.487 42.4392 123.251 43.6874 118.067C44.9356 112.882 45.9568 108.57 45.9568 108.467C45.9568 108.416 46.9214 108.262 48.1128 108.159C49.2476 108.057 50.5525 107.954 50.9497 107.903C51.2901 107.851 51.6305 108.313 51.6305 109.032ZM128.793 108.057C128.793 108.313 124.651 122.225 123.913 124.329C123.686 124.945 123.062 125.253 121.927 125.253C121.02 125.253 120.282 125.202 120.282 125.099C120.282 124.997 120.906 121.249 121.701 116.732C122.495 112.266 123.119 108.416 123.119 108.159C123.119 107.954 124.424 107.8 125.956 107.8C127.544 107.8 128.793 107.903 128.793 108.057ZM74.5522 116.065C75.5167 116.732 76.1408 117.81 76.3678 119.145C76.6515 120.787 76.9919 121.147 78.0699 121.147C79.8855 121.147 80.9067 120.017 81.3606 117.605L81.701 115.5H84.5379C87.0343 115.5 87.3747 115.654 87.3747 116.578V117.605L89.0768 116.527C91.2896 115.089 93.6158 115.346 94.6938 117.143C95.4881 118.375 95.4881 118.58 94.5236 119.555C93.0484 120.993 91.4598 120.941 90.7789 119.401C90.4385 118.477 89.9846 118.221 89.1336 118.426C87.2613 118.837 86.4669 120.171 85.5024 124.483C84.9918 126.742 84.2542 129.822 83.9138 131.259L83.2897 133.98H80.5096C77.2188 133.98 77.2756 134.237 78.921 127.563C79.6018 124.843 80.0557 122.533 79.9422 122.43C79.8287 122.327 79.0344 122.379 78.1834 122.533C76.9352 122.738 76.538 123.149 76.2543 124.689C75.2898 129.309 72.4529 132.953 68.9353 133.98C66.3254 134.75 62.8644 133.877 61.2191 132.029C58.6092 129.052 61.1623 119.863 65.3608 117.04C68.6516 114.833 72.2827 114.422 74.5522 116.065ZM107.062 116.116C107.46 116.373 107.857 116.373 108.084 116.013C108.254 115.757 109.729 115.5 111.261 115.5C113.701 115.5 114.098 115.603 113.814 116.373C112.736 119.555 110.694 129.463 110.977 130.13C111.601 131.516 113.984 131.054 115.062 129.36C116.14 127.717 117.445 126.947 117.445 128.025C117.445 129.36 113.928 133.056 111.942 133.775C109.105 134.853 106.211 133.98 105.417 131.824C105.247 131.413 104.736 131.567 103.885 132.286C100.765 134.904 97.4739 135.007 94.9775 132.594C92.2541 129.925 93.6158 122.533 97.6441 118.426C100.651 115.295 104.566 114.371 107.062 116.116ZM122.608 128.847C123.913 129.514 124.083 132.491 122.892 133.415C121.53 134.442 118.977 133.877 118.069 132.389C117.332 131.157 117.332 130.9 118.183 129.668C119.204 128.282 120.736 127.974 122.608 128.847Z" fill="black"/>
<path d="M0 77V154H85.1053H170.211V77V-1.52588e-05H85.1053H0V77ZM91.5165 19.866C90.2683 20.0713 90.2116 20.328 90.2116 24.8453V29.6193L92.5378 29.9786C97.8711 30.7486 102.977 34.342 105.36 39.0133C109.956 48.048 103.375 59.29 92.5378 60.8813L90.2116 61.2406V81.8253C90.2683 93.17 90.0981 102.872 89.8712 103.334C89.474 104.258 86.013 104.566 84.6514 103.796C84.1407 103.437 83.9705 98.7653 84.084 82.1333L84.2542 60.9326L87.3747 60.3167C91.4031 59.598 93.7293 58.4687 96.4526 55.902C100.538 52.1033 102.07 45.5327 100.141 40.502C98.0413 35.1633 93.9562 31.878 87.6584 30.4407L83.9705 29.6193V24.5887V19.5067L88.396 19.558C90.7789 19.6093 92.1974 19.7633 91.5165 19.866ZM95.4881 20.3793C95.091 20.482 94.4101 20.482 94.0697 20.3793C93.6725 20.2253 93.9562 20.1227 94.7505 20.1227C95.5448 20.1227 95.8285 20.2253 95.4881 20.3793ZM97.9845 20.8413C97.8143 20.9953 97.3037 21.0467 96.9065 20.8927C96.4526 20.7386 96.6228 20.5847 97.2469 20.5847C97.8711 20.5333 98.2115 20.6873 97.9845 20.8413ZM111.147 28.5927C112.452 29.876 113.474 31.1593 113.474 31.4673C113.474 31.724 112.736 31.0566 111.828 29.9273C110.977 28.8493 109.105 27.0527 107.743 25.9747C106.155 24.6913 105.871 24.3833 107.062 25.102C108.027 25.718 109.899 27.258 111.147 28.5927ZM115.119 34.0853C114.949 34.2393 114.495 33.8286 114.098 33.2126C113.36 32.1346 113.417 32.1347 114.381 32.956C114.949 33.4693 115.289 33.9827 115.119 34.0853ZM116.821 37.9866C116.821 38.5 116.651 38.3973 116.311 37.73C115.63 36.344 115.63 35.5226 116.311 36.4466C116.594 36.8573 116.821 37.576 116.821 37.9866ZM117.275 40.1426C117.105 40.5533 116.935 40.3993 116.935 39.8346C116.878 39.27 117.048 38.962 117.218 39.1673C117.389 39.3213 117.445 39.7833 117.275 40.1426ZM117.842 47.3293C117.729 48.5613 117.615 47.586 117.615 45.1733C117.615 42.7607 117.729 41.7853 117.842 42.966C117.956 44.198 117.956 46.1487 117.842 47.3293ZM113.53 59.906C112.85 60.9326 112.736 60.6246 113.247 59.29C113.474 58.828 113.757 58.5713 113.871 58.7253C114.041 58.828 113.871 59.3926 113.53 59.906ZM110.807 64.9367C109.672 67.0413 108.594 68.684 108.481 68.5813C108.254 68.3246 112.225 61.0866 112.623 61.0866C112.793 61.0866 111.942 62.832 110.807 64.9367ZM107.97 70.07C107.8 70.532 107.516 70.7887 107.403 70.6347C107.233 70.4807 107.289 70.1726 107.516 69.8646C108.027 69.0433 108.367 69.1973 107.97 70.07ZM98.2115 88.088C96.3392 91.476 94.8073 94.0427 94.8073 93.8373C94.7505 93.2727 101.219 81.62 101.445 81.8253C101.559 81.928 100.084 84.7513 98.2115 88.088ZM93.5023 96.7633C93.5023 97.6914 89.8712 103.334 89.8712 103.334C89.8712 103.334 93.5023 95.48 93.8995 95.48C94.0697 95.48 93.8427 96.0447 93.5023 96.7633ZM51.6305 109.032C51.6305 109.648 51.4036 110.88 51.1199 111.701C50.8362 112.523 50.4391 113.806 50.2688 114.627C49.9284 116.013 49.9284 116.013 52.1979 115.705C53.6731 115.5 55.0347 115.603 55.8291 116.013C59.8006 117.913 58.7226 127.82 54.0702 131.721C48.8504 136.085 41.4179 134.853 41.4179 129.617C41.4179 128.487 42.4392 123.251 43.6874 118.067C44.9356 112.882 45.9568 108.57 45.9568 108.467C45.9568 108.416 46.9214 108.262 48.1128 108.159C49.2476 108.057 50.5525 107.954 50.9497 107.903C51.2901 107.851 51.6305 108.313 51.6305 109.032ZM128.793 108.057C128.793 108.313 124.651 122.225 123.913 124.329C123.686 124.945 123.062 125.253 121.927 125.253C121.02 125.253 120.282 125.202 120.282 125.099C120.282 124.997 120.906 121.249 121.701 116.732C122.495 112.266 123.119 108.416 123.119 108.159C123.119 107.954 124.424 107.8 125.956 107.8C127.544 107.8 128.793 107.903 128.793 108.057ZM74.5522 116.065C75.5167 116.732 76.1408 117.81 76.3678 119.145C76.6515 120.787 76.9919 121.147 78.0699 121.147C79.8855 121.147 80.9067 120.017 81.3606 117.605L81.701 115.5H84.5379C87.0343 115.5 87.3747 115.654 87.3747 116.578V117.605L89.0768 116.527C91.2896 115.089 93.6158 115.346 94.6938 117.143C95.4881 118.375 95.4881 118.58 94.5236 119.555C93.0484 120.993 91.4598 120.941 90.7789 119.401C90.4385 118.477 89.9846 118.221 89.1336 118.426C87.2613 118.837 86.4669 120.171 85.5024 124.483C84.9918 126.742 84.2542 129.822 83.9138 131.259L83.2897 133.98H80.5096C77.2188 133.98 77.2756 134.237 78.921 127.563C79.6018 124.843 80.0557 122.533 79.9422 122.43C79.8287 122.327 79.0344 122.379 78.1834 122.533C76.9352 122.738 76.538 123.149 76.2543 124.689C75.2898 129.309 72.4529 132.953 68.9353 133.98C66.3254 134.75 62.8644 133.877 61.2191 132.029C58.6092 129.052 61.1623 119.863 65.3608 117.04C68.6516 114.833 72.2827 114.422 74.5522 116.065ZM107.062 116.116C107.46 116.373 107.857 116.373 108.084 116.013C108.254 115.757 109.729 115.5 111.261 115.5C113.701 115.5 114.098 115.603 113.814 116.373C112.736 119.555 110.694 129.463 110.977 130.13C111.601 131.516 113.984 131.054 115.062 129.36C116.14 127.717 117.445 126.947 117.445 128.025C117.445 129.36 113.928 133.056 111.942 133.775C109.105 134.853 106.211 133.98 105.417 131.824C105.247 131.413 104.736 131.567 103.885 132.286C100.765 134.904 97.4739 135.007 94.9775 132.594C92.2541 129.925 93.6158 122.533 97.6441 118.426C100.651 115.295 104.566 114.371 107.062 116.116ZM122.608 128.847C123.913 129.514 124.083 132.491 122.892 133.415C121.53 134.442 118.977 133.877 118.069 132.389C117.332 131.157 117.332 130.9 118.183 129.668C119.204 128.282 120.736 127.974 122.608 128.847Z" fill="black"/>
<path d="M49.4178 119.299C48.4533 121.557 46.9214 129.309 47.3185 130.13C47.8859 131.567 50.5525 130.849 52.0277 128.949C53.7865 126.485 54.751 122.122 53.9 119.863C53.3326 118.375 52.9922 118.067 51.5738 118.067C50.3256 118.067 49.7582 118.375 49.4178 119.299Z" fill="black"/>
<path d="M70.4672 117.399C68.4814 118.118 65.6445 125.972 66.2119 129.206C66.4956 130.643 66.7225 130.9 68.0842 130.9C70.0133 130.9 71.6586 129.103 72.5664 125.869C73.0771 124.278 73.0771 123.457 72.5664 122.635C72.1125 121.814 72.1125 121.249 72.6232 120.377C73.8714 118.272 72.6799 116.578 70.4672 117.399Z" fill="black"/>
<path d="M102.864 118.683C100.481 121.095 98.7221 128.333 100.084 130.284C100.708 131.208 102.58 131.003 103.772 129.925C104.963 128.847 107.573 119.555 107.006 118.323C106.552 117.194 104.169 117.399 102.864 118.683Z" fill="black"/>
<path d="M89.032 103.776L107.763 70.5" stroke="#FBA70B"/>
<path d="M118.263 48C114.948 59.5 104.976 77 105.553 74C106.129 71 121.579 50.5 114.948 36.5C110.527 21 81.2374 19 92.29 20C106.564 21.2914 121.026 32 118.263 48Z" fill="#FBA70B"/>
<path d="M84 20.0001C84 20.0001 84.5527 18.5001 96.1579 20.5C107.763 22.5 114.395 32.5 106.105 25.0001" stroke="#FBA70B"/>
</g>
</g>
<defs>
<clipPath id="clip0_89_866">
<rect width="170.211" height="154" rx="37" transform="matrix(1 0 0 -1 0 154)" fill="white"/>
</clipPath>
</defs>
</svg>
